<svg width="98" height="251" viewBox="0 0 98 251" fill="none" xmlns="http://www.w3.org/2000/svg">
<path d="M1.00005 196.5C1.00005 197 0.500109 249.5 1.00005 250C1.5 250.5 57.0001 250 60.5001 250C64 250 71.5001 245.5 72.0001 245C72.5 244.5 83.0001 234 83.5001 233.5C84 233 90.0001 225 90.5001 224C91 223 96.5001 211 96.5001 210C96.5 209 97.5001 82.0001 96.5001 79.0001C95.5001 76.0001 87.0001 69.5001 83.5001 69.5001C80.0001 69.5001 71.5001 68.5001 69.0001 69.5001C66.5001 70.5001 54.0001 75.0001 50.0001 76.0001C46.0001 77.0001 40.5001 78.0001 38.5001 79.0001C36.5001 80.0001 68.5001 161.5 69.0001 161.5C69.5001 161.5 76.5001 161.5 77.0001 161.5C77.5001 161.5 77.0001 169.5 77.0001 169.5L75.0001 179L69.0001 189L62.0001 198C62.0001 198 54.0001 203.5 52.0001 205C50.0001 206.5 43.0001 208.5 43.0001 208.5H31.0001C31.0001 208.5 20.5001 208.5 19.0001 208.5C17.5001 208.5 14.0001 207 11.5001 205C9.00005 203 1.00005 196 1.00005 196.5Z" fill="#AA9166"/>
<path d="M31.0001 89.5001C34.5001 89.0001 61.0001 161.5 58.5001 161.5C56.0001 161.5 10.0001 161.5 7.50005 161.5C5.00005 161.5 27.5001 90.0001 31.0001 89.5001Z" fill="#AA9166"/>
<path d="M1.00005 144.5C1.50005 143.5 26.0001 81.0001 26.0001 79.0001C26.0001 77.0001 19.0001 72.0001 19.0001 69.5001C19.0001 67.0001 18.0001 63.0001 19.0001 61.5001C20.0001 60.0001 21.0001 56.0001 24.0001 54.5001C27.0001 53.0001 30.5001 53.0001 31.0001 53.0001C31.5001 53 38.0001 54.0001 38.5001 54.5001C39.0001 55 43.0001 61.0001 43.0001 61.5001C43.0001 62 42.5001 67.0001 43.0001 67.0001C43.5001 67 49.5001 64.5001 50.0001 64.5001C50.5001 64.5 60.0001 62.0001 60.5001 61.5001C61.0001 61 66.0001 53.5001 66.5001 53.0001C67.0001 52.5 75.0001 48.0001 75.0001 48.0001C75.0001 48.0001 80.5001 45.5001 81.0001 45.5001C81.5001 45.5001 96.5001 46.0001 96.5001 45.5001C96.5001 45 96.0001 35.0001 95.5001 34.5C95.0001 33.9999 91.0001 30.0001 90.5001 29.5001C90.0001 29 86.0001 23.5001 86.0001 23.0001C86.0001 22.5 85.5001 11.5 86.0001 10.5001C86.5001 9.50011 89.5001 6.00005 90.5001 5.00005C91.5001 4.00005 96.0001 1.50005 96.5001 1.00005C97.0001 0.500054 34.5001 1.00005 34.5001 1.00005L26.0001 5.00005L19.0001 10.5001L11.5001 16.5001L7.50005 23.0001L3.50005 29.5001L1.00005 38.5001C1.00005 38.5001 0.500054 145.5 1.00005 144.5Z" fill="#AA9166"/>
<path d="M1.00005 196.5C1.00005 197 0.500109 249.5 1.00005 250C1.5 250.5 57.0001 250 60.5001 250C64 250 71.5001 245.5 72.0001 245C72.5 244.5 83.0001 234 83.5001 233.5C84 233 90.0001 225 90.5001 224C91 223 96.5001 211 96.5001 210C96.5 209 97.5001 82.0001 96.5001 79.0001C95.5001 76.0001 87.0001 69.5001 83.5001 69.5001C80.0001 69.5001 71.5001 68.5001 69.0001 69.5001C66.5001 70.5001 54.0001 75.0001 50.0001 76.0001C46.0001 77.0001 40.5001 78.0001 38.5001 79.0001C36.5001 80.0001 68.5001 161.5 69.0001 161.5C69.5001 161.5 76.5001 161.5 77.0001 161.5C77.5001 161.5 77.0001 169.5 77.0001 169.5L75.0001 179L69.0001 189L62.0001 198C62.0001 198 54.0001 203.5 52.0001 205C50.0001 206.5 43.0001 208.5 43.0001 208.5H31.0001C31.0001 208.5 20.5001 208.5 19.0001 208.5C17.5001 208.5 14.0001 207 11.5001 205C9.00005 203 1.00005 196 1.00005 196.5Z" stroke="black"/>
<path d="M31.0001 89.5001C34.5001 89.0001 61.0001 161.5 58.5001 161.5C56.0001 161.5 10.0001 161.5 7.50005 161.5C5.00005 161.5 27.5001 90.0001 31.0001 89.5001Z" stroke="black"/>
<path d="M1.00005 144.5C1.50005 143.5 26.0001 81.0001 26.0001 79.0001C26.0001 77.0001 19.0001 72.0001 19.0001 69.5001C19.0001 67.0001 18.0001 63.0001 19.0001 61.5001C20.0001 60.0001 21.0001 56.0001 24.0001 54.5001C27.0001 53.0001 30.5001 53.0001 31.0001 53.0001C31.5001 53 38.0001 54.0001 38.5001 54.5001C39.0001 55 43.0001 61.0001 43.0001 61.5001C43.0001 62 42.5001 67.0001 43.0001 67.0001C43.5001 67 49.5001 64.5001 50.0001 64.5001C50.5001 64.5 60.0001 62.0001 60.5001 61.5001C61.0001 61 66.0001 53.5001 66.5001 53.0001C67.0001 52.5 75.0001 48.0001 75.0001 48.0001C75.0001 48.0001 80.5001 45.5001 81.0001 45.5001C81.5001 45.5001 96.5001 46.0001 96.5001 45.5001C96.5001 45 96.0001 35.0001 95.5001 34.5C95.0001 33.9999 91.0001 30.0001 90.5001 29.5001C90.0001 29 86.0001 23.5001 86.0001 23.0001C86.0001 22.5 85.5001 11.5 86.0001 10.5001C86.5001 9.50011 89.5001 6.00005 90.5001 5.00005C91.5001 4.00005 96.0001 1.50005 96.5001 1.00005C97.0001 0.500054 34.5001 1.00005 34.5001 1.00005L26.0001 5.00005L19.0001 10.5001L11.5001 16.5001L7.50005 23.0001L3.50005 29.5001L1.00005 38.5001C1.00005 38.5001 0.500054 145.5 1.00005 144.5Z" stroke="black"/>
</svg>
